<svg xmlns="http://www.w3.org/2000/svg" viewBox="0 0 512 512">
    <title>StyleGuideIcons</title>
    <g id="Color" class="color-group" data-name="Color">
        <rect id="color-3" data-name="color" x="372.5" y="349.5" width="121" height="131" style="fill:#ed1c24;opacity:0.4"/>
        <rect id="color-4" data-name="color" x="241.5" y="349.5" width="121" height="131" style="fill:#ed1c24;opacity:0.3"/>
        <polygon id="color-5" data-name="color" points="143 350 187 412 235 382 227.5 480.5 154 480 189 407 143 350" style="fill:#ed1c24;opacity:0.2"/>
        <rect id="color-6" data-name="color" x="21" y="8" width="139" height="131" style="fill:#ed1c24"/>
        <polygon id="color-7" data-name="color" points="21.5 137.5 160.5 137.5 160.5 251.05 152 261 145.44 268.5 21.5 268.5 21.5 137.5" style="fill:#ed1c24;opacity:0.9"/>
        <polygon id="color-8" data-name="color" points="21.5 272.5 143 272 90 332 22 358 21.5 272.5" style="fill:#ed1c24;opacity:0.8"/>
        <rect id="color-9" data-name="color" x="262.5" y="109.5" width="139" height="131" transform="translate(220.99 -183.5) rotate(45)" style="fill:#ed1c24;opacity:0.7000000000000001"/>
        <rect id="color-10" data-name="color" x="165.5" y="202.5" width="139" height="131" transform="translate(258.34 -87.67) rotate(45)" style="fill:#ed1c24;opacity:0.6"/>
        <polygon id="color-11" data-name="color" points="136.17 263.54 234.46 361.83 180.14 416.14 156.5 354.5 81.86 317.86 136.17 263.54" style="fill:#ed1c24;opacity:0.5"/>
    </g>
    <path d="M498.94,340.58H275.25l39.95-39.95L433.43,182.4a8.52,8.52,0,0,0,0-12L337.1,74a8.52,8.52,0,0,0-12,0L206.83,192.26l-40,40V8.51A8.51,8.51,0,0,0,158.37,0H22.14a8.52,8.52,0,0,0-8.52,8.51V368.29A94.76,94.76,0,0,0,150.54,493.84h348.4a8.52,8.52,0,0,0,8.52-8.52V349.09A8.51,8.51,0,0,0,498.94,340.58ZM164.65,353.14h0A96.6,96.6,0,0,0,153,342.37a93.85,93.85,0,0,0-52.38-19.77l44.27-44.27,7.51,7.51,69.27,69.27,7.51,7.51-22.87,22.86-17.72,17.73A94.45,94.45,0,0,0,164.65,353.14ZM218.87,204.3,238,185.21l84.29,84.29-19.09,19.09-54.48,54.48h0l-7.51,7.51-7.51-7.51L164.39,273.8l-7.51-7.51,7.51-7.51h0Zm-83.16,59.08H30.65V148.72h119.2V249.24Zm-105.06,17h88L74.43,324.66a95,95,0,0,0-43.78,22.81ZM189.08,426.75l29.23-29.23,8.74-8.74v88H168.46A94.73,94.73,0,0,0,189.08,426.75Zm55-55,3.11-3.11h0l11-11H358.74v119.2H244.08Zm87-279.66,84.29,84.29-81.08,81.08L250,173.17ZM149.85,17V131.69H30.65V17ZM17,417.21a77.79,77.79,0,0,1,63.23-76.39h0a77.86,77.86,0,0,1,14.53-1.38,77,77,0,0,1,47.7,16.37,77.82,77.82,0,0,1,9.6,8.84h0a77.56,77.56,0,0,1,20.46,52.56c0,1.53-.06,3.17-.19,5.16h0a77.79,77.79,0,0,1-29.88,56.23A77,77,0,0,1,94.79,495,77.84,77.84,0,0,1,17,417.21Zm473.4,59.6H375.77V357.61H490.43Z"/>
    <path d="M94.79,358.74a58.47,58.47,0,1,0,58.47,58.47A58.53,58.53,0,0,0,94.79,358.74Zm0,99.9a41.44,41.44,0,1,1,41.44-41.43A41.48,41.48,0,0,1,94.79,458.64Z"/>
    <path d="M94.79,383.72a8.52,8.52,0,0,0,0,17,16.47,16.47,0,0,1,16.46,16.46,8.52,8.52,0,0,0,17,0A33.52,33.52,0,0,0,94.79,383.72Z"/>
</svg>