<svg id="Layer_4" data-name="Layer 4" 
    xmlns="http://www.w3.org/2000/svg" viewBox="0 0 512 512">
    <title>StyleGuideIcons</title>
    <g id="Color" class="color-group">
        <rect x="371" y="453" width="43" height="40" style="fill:#ed1c24;opacity:0.6"/>
        <rect x="99" y="453" width="43" height="40" style="fill:#ed1c24;opacity:0.6"/>
        <circle cx="256" cy="264" r="27" style="fill:#ed1c24"/>
    </g>
    <path d="M248.89,443.49a8,8,0,0,0,14.22,0l67.83-135.67a8,8,0,0,0,.75-4.78L310.64,168.32l13.3-151.66A7.94,7.94,0,0,0,316,8H199a7.95,7.95,0,0,0-7.92,8.54L202.2,165.16a7.8,7.8,0,0,0-.69,2.21L180.31,303a8,8,0,0,0,.75,4.78ZM256,287.83a21.73,21.73,0,1,1,21.73-21.72A21.75,21.75,0,0,1,256,287.83ZM307.35,23.91l-12,136.73H217.8L207.61,23.91ZM216.17,176.54h79.66L315.59,303,264,406.26V302.88a37.63,37.63,0,1,0-15.9,0V406.26L196.41,303Z"/>
    <path d="M412.87,444.7h-42.4a8,8,0,0,0-8,7.95V465.9h-213V452.65a8,8,0,0,0-7.95-7.95H99.13a8,8,0,0,0-7.95,7.95v42.4A8,8,0,0,0,99.13,503h42.4a8,8,0,0,0,7.95-7.95V481.8h213v13.25a8,8,0,0,0,8,7.95h42.4a8,8,0,0,0,7.95-7.95v-42.4A8,8,0,0,0,412.87,444.7ZM133.58,487.1h-26.5V460.6h26.5Zm271.34,0h-26.5V460.6h26.5Z"/>
    <path d="M256,464.84c111.92,0,203-91,203-203a8,8,0,0,0-15.9,0C443.08,365,359.15,448.94,256,448.94S68.92,365,68.92,261.87a8,8,0,0,0-15.9,0C53,373.79,144.08,464.84,256,464.84Z"/>
</svg>