<svg xmlns="http://www.w3.org/2000/svg" viewBox="0 0 512 512">
    <title>StyleGuideIcons</title>
    <g id="Layout">
        <g id="Color" class="color-group">
            <polygon points="174 71 278 71 278 150 172 150 174 71" style="fill:#ed1c24"/>
            <polygon points="49.38 211 121 211 121 283 48 283 49.38 211" style="fill:#ed1c24"/>
            <polygon points="180.38 211 252 211 252 261 217 250 227 283 179 283 180.38 211" style="fill:#ed1c24;opacity:0.8"/>
            <polygon points="317.38 211 389 211 389 283 316 283 317.38 211" style="fill:#ed1c24;opacity:0.6"/>
        </g>
        <path d="M464.4,250.72a7.85,7.85,0,0,0,7.85-7.85v-67a7.86,7.86,0,1,0-15.71,0v67A7.85,7.85,0,0,0,464.4,250.72Z"/>
        <path d="M497.9,34H12.1a7.85,7.85,0,0,0-7.85,7.85v335a7.85,7.85,0,0,0,7.85,7.85H305.82l115,115a7.86,7.86,0,0,0,11.11,0l35.53-35.54a7.84,7.84,0,0,0,0-11.1L399.1,384.74h98.8a7.85,7.85,0,0,0,7.85-7.85v-335A7.85,7.85,0,0,0,497.9,34ZM20,49.71H423V369H383.4l-93.66-93.65,0,0-.37-.33-.23-.2-.31-.23-.34-.24-.23-.14-.47-.26-.05,0-24.85-12.43V209.37a7.84,7.84,0,0,0-7.85-7.85H229.35v-17.8H347.66v17.8h-34a7.84,7.84,0,0,0-7.85,7.85v75.38a7.84,7.84,0,0,0,7.85,7.85H389a7.85,7.85,0,0,0,7.86-7.85V209.37a7.85,7.85,0,0,0-7.86-7.85H363.36V175.87a7.85,7.85,0,0,0-7.85-7.86H229.35v-5.23h46.59a7.85,7.85,0,0,0,7.85-7.85V71.17a7.84,7.84,0,0,0-7.85-7.85H171.24a7.84,7.84,0,0,0-7.85,7.85v83.76a7.85,7.85,0,0,0,7.85,7.85h42.4V168H79.11a7.85,7.85,0,0,0-7.85,7.86v25.65H45.61a7.85,7.85,0,0,0-7.86,7.85v75.38a7.85,7.85,0,0,0,7.86,7.85H121a7.85,7.85,0,0,0,7.85-7.85V209.37a7.85,7.85,0,0,0-7.85-7.85H87v-17.8H213.64v17.8h-34a7.84,7.84,0,0,0-7.85,7.85v75.38a7.84,7.84,0,0,0,7.85,7.85H228L241.63,320l0,0a8,8,0,0,0,.53.89l.13.18c.15.2.31.4.48.59l.21.24.11.11,47,47H20ZM239.82,281.24,230.68,263l20.81,10.4,19.44,9.72-20.12,20.13ZM179.09,147.07V79h89v68.05Zm42.41,70.15h25.65v36.41l-30.52-15.26a7.85,7.85,0,0,0-10.53,10.54l14,28H187.47V217.22Zm159.66,0V276.9H321.48V217.22Zm-268,0V276.9H53.46V217.22ZM426.33,483,314.63,371.33l-54.87-54.86L284.19,292l90.4,90.4,76.18,76.17Zm63.72-114H438.74V49.71h51.31Z"/>
    </g>
</svg>