<svg xmlns="http://www.w3.org/2000/svg" viewBox="0 0 512 512">
    <title>StyleGuideIcons</title>
    <g id="Logos">
        <g id="Color" class="color-group">
            <polygon points="259.9 232.08 292.74 222.42 308.2 253.34 258.93 311.3 205.8 260.1 214.49 223.39 241.54 226.29 259.9 232.08" style="fill:#ed1c24"/>
        </g>
        <path d="M502.35,249.1c-1.12-1.27-27.92-31.51-71.52-62.15C390.37,158.51,327.37,124.61,257,124.61S123.63,158.51,83.17,187c-43.6,30.64-70.4,60.88-71.52,62.15a7.9,7.9,0,0,0,0,10.41c1.12,1.27,27.92,31.51,71.52,62.15C123.63,350.1,186.63,384,257,384s133.37-33.9,173.83-62.34c43.6-30.64,70.4-60.88,71.52-62.15A7.9,7.9,0,0,0,502.35,249.1Zm-346.69,5.21A101.34,101.34,0,1,1,257,355.65,101.45,101.45,0,0,1,155.66,254.31Zm-127.33,0a452.22,452.22,0,0,1,63.9-54.46c30.75-21.61,75-46.51,125.26-55.76a117.1,117.1,0,0,0,0,220.45c-50.09-9.22-94.26-34-124.94-55.54A452.22,452.22,0,0,1,28.33,254.3Zm393.44,54.47c-30.74,21.61-75,46.51-125.26,55.76a117.1,117.1,0,0,0,0-220.45c50.09,9.23,94.26,34,124.94,55.54a452.89,452.89,0,0,1,64.21,54.69A451.54,451.54,0,0,1,421.77,308.77Z"/>
        <path d="M334.71,262.18a7.87,7.87,0,0,0,7.88-7.87,85,85,0,0,0-6.37-32.4,7.87,7.87,0,1,0-14.57,6,69.3,69.3,0,0,1,5.18,26.42A7.87,7.87,0,0,0,334.71,262.18Z"/>
        <path d="M257,168.72a7.88,7.88,0,1,0,0,15.75,69.34,69.34,0,0,1,49.64,20.77,7.88,7.88,0,0,0,11.2-11.08A85,85,0,0,0,257,168.72Z"/>
        <path d="M299.57,217.42c-7.82-4.18-21.4-6.2-42.57,6.56-21.17-12.76-34.75-10.74-42.57-6.56-10.13,5.43-15.71,17-15.71,32.69,0,29.29,48.14,65.35,53.63,69.36a7.87,7.87,0,0,0,9.3,0c5.49-4,53.63-40.07,53.63-69.36C315.28,234.45,309.7,222.85,299.57,217.42ZM257,303.23c-18.12-14.17-42.53-38.31-42.53-53.12,0-9.43,2.7-16.28,7.4-18.8a12.52,12.52,0,0,1,6-1.34c6.41,0,15,3.41,24.77,9.89a7.89,7.89,0,0,0,8.74,0c13.22-8.82,24.44-11.93,30.76-8.55,4.71,2.52,7.4,9.37,7.4,18.8C299.53,264.89,275.11,289,257,303.23Z"/>
        <path d="M257,98.36a7.88,7.88,0,0,0,7.88-7.88V35.88a7.88,7.88,0,1,0-15.76,0v54.6A7.88,7.88,0,0,0,257,98.36Z"/>
        <path d="M335,119.25a7.87,7.87,0,0,0,10.76-2.88L373,69.08a7.88,7.88,0,0,0-13.65-7.88l-27.3,47.29A7.89,7.89,0,0,0,335,119.25Z"/>
        <path d="M168.27,116.37a7.88,7.88,0,1,0,13.64-7.88L154.61,61.2A7.88,7.88,0,0,0,141,69.08Z"/>
    </g>
</svg>