<svg xmlns="http://www.w3.org/2000/svg" viewBox="0 0 512 512">
    <title>StyleGuideIcons</title>
    <g id="Photography">
        <g id="Color" class="color-group">
            <rect x="14" y="440" width="478" height="57" style="fill:#ed1c24"/>
            <circle cx="336" cy="223" r="59" style="fill:#ed1c24;opacity:0.81"/>
        </g>
        <path d="M496.07,5.77H17.93A7.93,7.93,0,0,0,10,13.7V500.3a7.93,7.93,0,0,0,7.93,7.93H496.07A7.93,7.93,0,0,0,504,500.3V13.7A7.93,7.93,0,0,0,496.07,5.77Zm-470.2,404,123.3-175L278.06,414a7.95,7.95,0,0,0,11.88,1.15l100.29-94.28,97.9,94V428.9H25.87ZM488.13,21.64V392.83l-92.35-88.66a7.93,7.93,0,0,0-10.93-.06l-99.19,93.24-130.12-181a7.93,7.93,0,0,0-6.44-3.3h0a7.94,7.94,0,0,0-6.44,3.36L25.87,382.17V21.64ZM25.87,492.36v-47.6H488.13v47.6Z"/>
        <path d="M335.28,292.44a67.18,67.18,0,1,0-67.17-67.17A67.25,67.25,0,0,0,335.28,292.44Zm0-118.48A51.31,51.31,0,1,1,284,225.27,51.36,51.36,0,0,1,335.28,174Z"/>
        <path d="M297.2,102a7.93,7.93,0,0,0,7.93-7.93,17.46,17.46,0,1,1,34.91,0,7.94,7.94,0,0,0,15.87,0,17.45,17.45,0,1,1,34.9,0,7.94,7.94,0,0,0,15.87,0,17.46,17.46,0,1,1,34.91,0,7.94,7.94,0,0,0,15.87,0,33.31,33.31,0,0,0-58.71-21.56,33.29,33.29,0,0,0-50.78,0A33.31,33.31,0,0,0,289.26,94.1,7.94,7.94,0,0,0,297.2,102Z"/>
        <path d="M72.94,169.73a7.93,7.93,0,0,0,7.93-7.93,17.46,17.46,0,1,1,34.91,0,7.94,7.94,0,0,0,15.87,0,17.46,17.46,0,1,1,34.91,0,7.93,7.93,0,1,0,15.86,0,33.3,33.3,0,0,0-58.7-21.56A33.31,33.31,0,0,0,65,161.8,7.93,7.93,0,0,0,72.94,169.73Z"/>
    </g>
</svg>