<svg xmlns="http://www.w3.org/2000/svg" viewBox="0 0 512 512">
    <title>StyleGuideIcons</title>
    <g id="type">
        <g id="Color" class="color-group" data-name="Color">
            <path d="M72.84,416.81h73.63v72.66S72.77,416.88,72.84,416.81Z" style="fill:#ed1c24"/>
            <polygon points="130 13.81 438.06 13.81 438.06 119.41 410.94 92.28 323.75 92.28 323.75 367.41 243.34 367.41 243.34 93.25 154.22 93.25 126.61 120.86 130 13.81" style="fill:#ed1c24"/>
        </g>
        <path d="M439.34,8H127.63a7.9,7.9,0,0,0-7.9,7.9V125.42a7.9,7.9,0,0,0,14.07,4.93l24.59-30.73h79.29v43.17h-169a7.9,7.9,0,0,0-7.9,7.9V416.06a6.85,6.85,0,0,0,0,.79c0,.11,0,.22.05.33l.06.43c0,.13.06.26.1.38l.09.37c0,.13.09.25.13.37s.08.24.13.36.11.23.16.34.11.24.17.36l.19.32c.07.11.13.23.21.34s.16.23.25.34a2.92,2.92,0,0,0,.21.28,6.41,6.41,0,0,0,.49.55l0,0,80,80,0,0,.54.49.29.21.34.25.33.21.33.19.35.17.35.16.35.13.38.13a3.58,3.58,0,0,0,.35.09l.4.1.41.06.35,0a6.79,6.79,0,0,0,.78,0h219a7.9,7.9,0,0,0,7.9-7.9V150.69a7.9,7.9,0,0,0-7.9-7.89H329.29V99.62h79.3l24.58,30.73a7.9,7.9,0,0,0,14.07-4.93V15.9A7.9,7.9,0,0,0,439.34,8ZM115,424h25.8V477L87.73,424ZM359.83,488.2H156.59V424H321.4a7.9,7.9,0,0,0,0-15.8H76.56V158.59H237.68V206H115a7.9,7.9,0,0,0,0,15.8H237.68v51.6H115a7.9,7.9,0,0,0,0,15.79H237.68v51.6H115a7.9,7.9,0,0,0,0,15.8H237.68v13.16a7.9,7.9,0,0,0,7.9,7.9H321.4a7.9,7.9,0,0,0,7.89-7.9V158.59h30.54Zm71.61-385.3L418.55,86.79a7.89,7.89,0,0,0-6.17-3h-91a7.9,7.9,0,0,0-7.9,7.9V361.83h-60V91.72a7.9,7.9,0,0,0-7.89-7.9h-91a7.89,7.89,0,0,0-6.17,3L135.53,102.9V23.8H431.44Z"/>
        <path d="M363.52,53.28h54.76a7.9,7.9,0,1,0,0-15.79H363.52a7.9,7.9,0,1,0,0,15.79Z"/>
        <path d="M296.12,53.28H334a7.9,7.9,0,1,0,0-15.79H296.12a7.9,7.9,0,1,0,0,15.79Z"/>
    </g>
</svg>