<svg xmlns="http://www.w3.org/2000/svg" viewBox="0 0 512 512">
    <title>StyleGuideIcons</title>
    <g id="Voice_Tone" data-name="Voice&amp; Tone">
        <g id="Color" class="color-group" data-name="Color">
            <polygon points="155.41 422.93 187.11 458.6 146.82 463.88 155.41 422.93" style="fill:#ed1c24"/>
            <rect x="231.02" y="205.82" width="112.37" height="232.66" transform="translate(311.91 -108.74) rotate(45)" style="fill:#ed1c24;opacity:0.8"/>
            <path d="M6,10V116H503V10ZM77,86.27A22.46,22.46,0,1,1,99.48,63.81,22.47,22.47,0,0,1,77,86.27Zm94.68,0a22.46,22.46,0,1,1,22.46-22.46A22.47,22.47,0,0,1,171.7,86.27Zm92.92,0a22.46,22.46,0,1,1,22.46-22.46A22.46,22.46,0,0,1,264.62,86.27Z" style="fill:#ed1c24"/>
        </g>
        <path d="M504,4.28H8a8,8,0,0,0-8,8V499.71a8,8,0,0,0,8,8H504a8,8,0,0,0,8-8V12.29A8,8,0,0,0,504,4.28Zm-248,16H496v86.58H16V20.31Zm0,471.38H16V122.92H496V491.69Z"/>
        <path d="M333,54.51H427a8,8,0,1,0,0-16H333a8,8,0,1,0,0,16Z"/>
        <path d="M452.68,54.51h17.1a8,8,0,1,0,0-16h-17.1a8,8,0,1,0,0,16Z"/>
        <path d="M253.3,95.34h0a33.67,33.67,0,1,0,0-63.5h0a33.68,33.68,0,0,0,0,63.48ZM258.67,47h0a17.64,17.64,0,1,1,0,33.26h0a17.64,17.64,0,0,1,0-33.26Z"/>
        <path d="M170.49,97.27A33.67,33.67,0,1,0,136.82,63.6,33.71,33.71,0,0,0,170.49,97.27Zm0-51.31A17.64,17.64,0,1,1,152.85,63.6,17.66,17.66,0,0,1,170.49,46Z"/>
        <path d="M76.43,97.27A33.67,33.67,0,1,0,42.76,63.6,33.71,33.71,0,0,0,76.43,97.27Zm0-51.31A17.64,17.64,0,1,1,58.79,63.6,17.65,17.65,0,0,1,76.43,46Z"/>
        <path d="M395.8,129.88a8,8,0,0,0-11.34,0l-54,54H72.15a8,8,0,1,0,0,16H314.47L250.33,264l-56.65,56.65H72.15a8,8,0,1,0,0,16h105.5L160.37,354l0,0h0a.27.27,0,0,0-.07.08,5.57,5.57,0,0,0-.46.51,1.49,1.49,0,0,0-.15.2c-.11.14-.22.28-.32.43s-.12.2-.18.3-.15.24-.22.37-.13.26-.19.39l-.15.31-.18.5c0,.08-.06.16-.08.24a5,5,0,0,0-.16.64.79.79,0,0,0,0,.13v0a0,0,0,0,1,0,0l-19.86,99.32H72.15a8,8,0,1,0,0,16h79a8,8,0,0,0,5.51-2.21l35-7h0l60.41-12.08h.05l.14,0L253,452l.25-.09c.17-.06.33-.11.49-.18a3.13,3.13,0,0,0,.32-.15c.13-.06.26-.11.38-.18l.38-.22.29-.18c.15-.1.29-.21.43-.32l.2-.15c.18-.14.34-.3.51-.46l.08-.07v0l0,0,5.31-5.31L372,334.35l48-48,60.46-60.47a8,8,0,0,0,0-11.33ZM360.64,323l-110,110-15.87-15.87,26.89-26.89,55.88-55.89,69.56-69.55L403,280.67ZM155.05,455.28l3.78-18.87,15.09,15.1Zm37.77-7.55-30.21-30.21L170.92,376l16.62,16.62,30.23,30.23,16.62,16.62ZM306.22,323,250.33,378.9l-26.89,26.89-18.9-18.89L356.88,234.56l18.89,18.9Zm-113,52.54-15.88-15.87,25.34-25.34h0l59-59,68-68,15.87,15.88ZM414.32,269.33l-21.54-21.54-30.23-30.23L341,196l49.12-49.13,73.32,73.31Z"/>
        <path d="M382.87,169.1l-19.24,19.24A8,8,0,0,0,375,199.67l19.24-19.24a8,8,0,0,0-11.34-11.33Z"/>
    </g>
</svg>